<svg width="60" height="60" viewBox="0 0 60 60" fill="none" xmlns="http://www.w3.org/2000/svg">
<path d="M25.8975 2.49C27.061 1.55793 28.5073 1.05005 29.9981 1.05005C31.4889 1.05005 32.9353 1.55793 34.0988 2.49L53.7863 18.24C55.3425 19.485 56.25 21.3713 56.25 23.3663V49.6875C56.25 51.428 55.5586 53.0972 54.3279 54.3279C53.0972 55.5586 51.428 56.25 49.6875 56.25H36.5625C35.8166 56.25 35.1012 55.9537 34.5738 55.4262C34.0463 54.8988 33.75 54.1834 33.75 53.4375V33.75H26.25V53.4375C26.25 54.1834 25.9537 54.8988 25.4262 55.4262C24.8988 55.9537 24.1834 56.25 23.4375 56.25H10.3125C8.57202 56.25 6.90282 55.5586 5.67211 54.3279C4.4414 53.0972 3.75 51.428 3.75 49.6875V23.3625C3.75 21.3713 4.6575 19.485 6.21375 18.24L25.8975 2.49ZM30.585 6.88125C30.4189 6.74859 30.2126 6.67634 30 6.67634C29.7874 6.67634 29.5811 6.74859 29.415 6.88125L9.7275 22.6313C9.61721 22.7193 9.52822 22.8312 9.46719 22.9584C9.40615 23.0857 9.37464 23.2251 9.375 23.3663V49.6875C9.375 50.205 9.795 50.625 10.3125 50.625H20.625V30.9375C20.625 30.1916 20.9213 29.4762 21.4488 28.9488C21.9762 28.4213 22.6916 28.125 23.4375 28.125H36.5625C37.3084 28.125 38.0238 28.4213 38.5512 28.9488C39.0787 29.4762 39.375 30.1916 39.375 30.9375V50.625H49.6875C49.9361 50.625 50.1746 50.5262 50.3504 50.3504C50.5262 50.1746 50.625 49.9361 50.625 49.6875V23.3625C50.6248 23.222 50.593 23.0833 50.532 22.9567C50.471 22.8302 50.3823 22.7189 50.2725 22.6313L30.585 6.88125Z" fill="#D50009"/>
</svg>
