<svg width="55" height="52" viewBox="0 0 55 52" fill="none" xmlns="http://www.w3.org/2000/svg">
<path d="M23.5214 0.0642549C10.551 0.0642549 0 10.1523 0 22.5535C0 34.9547 10.551 45.0427 23.5214 45.0427C27.4865 45.0427 31.3843 44.1431 34.6773 42.4082C34.9411 42.7117 35.2335 42.9913 35.551 43.2435L42.2714 49.669C42.8919 50.3366 43.6486 50.8759 44.495 51.2538C45.3415 51.6317 46.2597 51.8402 47.1935 51.8665C48.1272 51.8927 49.0567 51.7363 49.9249 51.4066C50.7931 51.077 51.5817 50.5812 52.2423 49.9497C52.9028 49.3181 53.4214 48.5641 53.7661 47.734C54.1109 46.9039 54.2745 46.0152 54.247 45.1224C54.2195 44.2297 54.0015 43.3517 53.6063 42.5424C53.2111 41.7331 52.647 41.0096 51.9488 40.4163L45.2283 33.9908C44.901 33.6777 44.5406 33.3978 44.1531 33.1555C45.9676 30.007 47.1101 26.3445 47.1101 22.4892C47.1101 10.088 36.559 0 23.5886 0L23.5214 0.0642549ZM23.5214 6.48974C32.8628 6.48974 40.3224 13.622 40.3224 22.5535C40.3224 26.7943 38.7096 30.7138 35.887 33.6053C35.8198 33.6696 35.7526 33.7338 35.6854 33.7981C35.3679 34.0503 35.0755 34.3299 34.8117 34.6334C31.8547 37.2036 27.8225 38.6814 23.4542 38.6814C14.1129 38.6814 6.6532 31.5492 6.6532 22.6177C6.6532 13.6863 14.1129 6.554 23.4542 6.554L23.5214 6.48974Z" fill="#D50009"/>
</svg>
